<svg version="1.1" id="Layer_1" xmlns="http://www.w3.org/2000/svg" xmlns:xlink="http://www.w3.org/1999/xlink" x="0px" y="0px"
	 width="100%" viewBox="0 0 704 688" enable-background="new 0 0 704 688" xml:space="preserve">
<path fill="#000000" opacity="1.000000" stroke="none" 
	d="
M391.153564,484.722717 
	C383.623718,466.582123 376.260406,448.786407 368.897095,430.990692 
	C368.517822,431.054413 368.138550,431.118103 367.759277,431.181793 
	C367.307281,435.352783 366.689362,439.513519 366.430847,443.696472 
	C364.983398,467.115570 363.716919,490.546082 362.205750,513.960938 
	C360.727112,536.871643 359.020782,559.767639 357.434692,582.671509 
	C357.112885,587.318542 357.553528,591.993774 356.738159,596.634094 
	C356.280731,599.237244 355.061981,600.436218 352.393890,600.242493 
	C347.576874,599.892822 342.755646,599.593445 337.932953,599.332764 
	C335.907257,599.223267 334.876648,598.254700 334.842743,596.233948 
	C334.817596,594.734497 334.786957,593.234680 334.795685,591.735229 
	C335.093994,540.578979 335.403656,489.422729 335.671570,438.266296 
	C335.681610,436.350006 336.205414,434.328400 335.114044,432.400055 
	C333.108521,433.246826 332.738556,435.152557 331.975342,436.722046 
	C309.321259,483.308685 286.686188,529.904602 264.047089,576.498535 
	C261.204712,582.348389 261.202667,582.345337 255.172485,579.667542 
	C252.584457,578.518250 249.983917,577.396790 247.404007,576.229614 
	C241.359894,573.495117 241.328903,573.472534 243.820023,567.474548 
	C255.190598,540.096680 266.590790,512.731201 277.963715,485.354309 
	C286.780853,464.129669 295.585052,442.899658 304.348480,421.652832 
	C304.888824,420.342682 305.953979,419.064697 305.307312,417.407288 
	C303.436981,416.835846 302.635406,418.397339 301.595978,419.308411 
	C264.011444,452.251892 226.444458,485.215424 188.878983,518.180664 
	C186.124390,520.597900 183.351166,522.997437 180.675873,525.500610 
	C178.634903,527.410278 177.053986,527.164429 175.251190,525.083618 
	C172.197739,521.559204 169.019867,518.132812 165.740341,514.817566 
	C163.735123,512.790466 163.986084,511.230865 165.919800,509.366760 
	C170.358612,505.087830 174.681702,500.688995 179.062683,496.349884 
	C212.215012,463.514099 245.371185,430.682190 278.518921,397.841797 
	C279.679840,396.691650 280.764618,395.464661 282.216156,393.921326 
	C279.862946,393.152679 278.294403,394.243225 276.731140,394.781952 
	C227.622528,411.705139 178.526764,428.665588 129.429062,445.620422 
	C123.161278,447.784912 123.155533,447.787292 120.868584,441.761169 
	C119.686859,438.647339 118.710106,435.440582 117.313950,432.427246 
	C115.747856,429.047119 116.174629,427.187347 119.987686,425.655853 
	C137.914017,418.455994 155.734818,410.992432 173.573685,403.575836 
	C206.173874,390.022095 238.760513,376.435791 271.349487,362.855103 
	C271.775299,362.677643 272.157379,362.395233 273.300873,361.732117 
	C262.018433,360.900726 251.507843,360.062897 240.988068,359.363068 
	C211.094772,357.374481 181.199966,355.406830 151.301117,353.503815 
	C137.845154,352.647369 124.378754,351.953308 110.915939,351.206268 
	C102.703964,350.750580 102.559380,350.636414 102.870064,342.476318 
	C102.952309,340.315979 103.171249,338.157227 103.411621,336.007172 
	C104.216202,328.810425 104.231003,328.774933 111.717026,328.817474 
	C161.706512,329.101685 211.695908,329.403931 261.685333,329.696564 
	C264.645020,329.713867 267.604858,329.698792 270.897430,329.698792 
	C269.952271,327.072113 267.975952,326.838074 266.446747,326.093445 
	C219.866974,303.413422 173.272827,280.762939 126.685242,258.098999 
	C120.741463,255.207428 120.527443,255.071564 123.410912,249.345901 
	C125.620468,244.958466 125.830574,238.182175 130.368423,236.726913 
	C134.412262,235.430084 139.256561,239.517105 143.687088,241.347092 
	C189.558334,260.293823 235.393845,279.326996 281.243408,298.326263 
	C282.915741,299.019226 284.630432,299.610016 286.986633,300.497498 
	C284.418579,295.675720 280.875305,292.448090 277.792236,288.926208 
	C245.083649,251.562103 212.295700,214.267487 179.518982,176.963058 
	C175.122879,171.959702 175.089203,171.976456 179.798843,167.581375 
	C182.357117,165.193985 185.177750,163.039719 187.456711,160.413010 
	C190.428818,156.987335 192.360352,158.683426 194.719040,161.074890 
	C217.420578,184.091980 240.117783,207.113922 262.936981,230.014160 
	C278.455688,245.587982 294.167084,260.969818 310.282440,276.922699 
	C308.447083,271.462738 306.790833,266.421600 305.060486,261.405975 
	C289.151093,215.290268 273.320160,169.146988 257.179016,123.112495 
	C255.432892,118.132637 256.568268,116.187828 261.196167,114.897209 
	C264.391113,114.006203 267.573914,112.857864 270.524506,111.357307 
	C274.422913,109.374771 275.970123,110.831726 277.468170,114.494461 
	C289.635376,144.243195 301.980896,173.918991 314.265442,203.619736 
	C322.284973,223.008789 330.291016,242.403412 338.312042,261.791840 
	C338.876709,263.156799 339.252686,264.646271 340.879028,265.874054 
	C342.447052,262.053284 342.101135,258.054657 342.389893,254.321594 
	C343.723816,237.075653 344.564423,219.792206 345.680389,202.528595 
	C347.225952,178.619583 348.889404,154.718216 350.440399,130.809555 
	C351.022217,121.841316 351.294006,112.851662 351.960938,103.890656 
	C352.496796,96.690666 352.703491,96.308662 359.681122,96.959724 
	C377.238647,98.597939 374.128876,94.624565 374.093109,111.961243 
	C373.991699,161.118423 373.586945,210.274994 373.303650,259.431793 
	C373.292419,261.378204 373.302216,263.324707 374.385498,265.578217 
	C376.862122,260.621246 379.385162,255.686844 381.808105,250.703796 
	C403.078979,206.957870 424.379639,163.226273 445.506805,119.411011 
	C447.352600,115.583023 449.256042,114.894310 452.765686,116.870010 
	C457.242920,119.390396 464.141724,119.848885 466.061829,123.968132 
	C468.048004,128.229019 463.304474,133.386398 461.375977,138.075943 
	C442.628632,183.663422 423.764435,229.202835 404.938751,274.758087 
	C404.178650,276.597504 403.470703,278.458435 402.402649,281.158203 
	C408.036682,277.791718 411.956116,273.595825 416.203339,269.879303 
	C452.945709,237.728134 489.656738,205.540619 526.225586,173.192581 
	C529.968567,169.881607 532.374207,169.576950 535.403076,173.666306 
	C537.374878,176.328537 539.679016,178.824432 542.181335,180.994629 
	C545.654663,184.006943 544.820740,186.096085 541.854980,189.019028 
	C504.823303,225.515518 467.911346,262.133453 430.928650,298.679718 
	C429.642639,299.950531 427.940308,300.800049 426.876556,302.423798 
	C430.223175,303.393341 432.686035,302.050476 435.195129,301.186096 
	C483.367279,284.591919 531.523499,267.951569 579.686890,251.331940 
	C585.877930,249.195618 585.889709,249.223618 588.147522,255.284119 
	C589.251770,258.248108 590.096008,261.341644 591.507812,264.150421 
	C593.454590,268.023560 592.606079,269.902100 588.470032,271.564484 
	C568.536804,279.576080 548.733093,287.909851 528.878174,296.116516 
	C499.482208,308.266876 470.079956,320.402130 440.688629,332.563690 
	C439.198578,333.180267 437.786438,333.985107 435.213043,335.259369 
	C452.318237,336.451416 468.166046,337.588959 484.018799,338.652954 
	C508.591003,340.302124 533.164001,341.942627 557.741821,343.505157 
	C571.194885,344.360413 584.658813,345.046295 598.117554,345.811646 
	C606.256104,346.274445 606.489014,346.513245 606.101929,354.585052 
	C606.014343,356.411957 605.763306,358.232056 605.561340,360.052338 
	C604.654724,368.220764 604.651306,368.229553 596.197754,368.180908 
	C545.874023,367.891388 495.550293,367.591003 445.226410,367.328400 
	C443.276428,367.318207 441.254242,366.899384 438.809784,368.044952 
	C440.671112,370.529999 443.365326,371.389435 445.742188,372.545959 
	C491.129425,394.631409 536.540833,416.667297 581.939453,438.729309 
	C588.221741,441.782257 588.282104,441.858124 585.342346,448.189453 
	C583.393372,452.386810 582.803589,458.520782 578.995056,460.198212 
	C575.093384,461.916748 570.425476,457.719635 566.177551,455.969666 
	C520.289246,437.065216 474.449951,418.041748 428.594238,399.058105 
	C426.614532,398.238556 424.605682,397.489471 421.773743,396.379700 
	C424.666840,401.598602 428.484985,405.005310 431.780151,408.767120 
	C464.389130,445.993713 497.034668,483.188660 529.819214,520.260437 
	C533.043457,523.906311 533.607178,526.363525 529.427124,529.436707 
	C526.624573,531.497192 524.056458,533.952759 521.696350,536.519287 
	C518.920959,539.537476 517.028809,538.778992 514.410706,536.123962 
	C477.786530,498.983368 441.060852,461.942932 404.377838,424.860352 
	C402.757507,423.222382 401.309021,421.414490 399.780457,419.685760 
	C399.435272,419.935852 399.090057,420.185944 398.744843,420.436035 
	C403.168884,433.253540 407.592224,446.071289 412.017151,458.888458 
	C425.325104,497.436401 438.576599,536.004150 452.026306,574.502563 
	C453.442963,578.557556 452.906403,580.636414 448.677368,581.840271 
	C445.325806,582.794373 441.988617,583.997192 438.880676,585.558655 
	C435.006989,587.504761 433.158203,586.699646 431.473694,582.560364 
	C418.792786,551.400269 405.874573,520.336731 393.031311,489.242676 
	C392.457123,487.852539 391.890320,486.459351 391.153564,484.722717 
z"/>
</svg>
